<?xml version="1.0" encoding="UTF-8"?>
<svg xmlns="http://www.w3.org/2000/svg" xmlns:xlink="http://www.w3.org/1999/xlink" width="1300px" height="660px" viewBox="0 0 1300 660" version="1.1">
<g id="surface1">
<path style=" stroke:none;fill-rule:nonzero;fill:rgb(0%,0%,0%);fill-opacity:1;" d="M 645.601562 2.898438 C 644.101562 3.898438 642.300781 5.800781 641.601562 7.101562 C 640 10.300781 634.5 12.898438 629.199219 13 C 626.398438 13 623.699219 13.800781 621.800781 15.199219 C 620.101562 16.398438 614.199219 18.601562 608.699219 20.101562 C 598.800781 22.898438 598.699219 22.898438 590.800781 21.398438 C 582.300781 19.800781 580.300781 20 584.199219 22.101562 C 586.601562 23.5 585.5 23.699219 562.300781 26.898438 C 558.601562 27.398438 554 28.898438 550.800781 30.699219 L 545.5 33.699219 L 538.5 30.398438 C 531.898438 27.300781 525.300781 25.601562 529 28 C 530.101562 28.699219 529.300781 29 525.898438 29 C 523.398438 29 520.5 28.300781 519.398438 27.5 C 516.300781 25.101562 508.699219 25.601562 504.300781 28.5 C 502.199219 29.800781 500.101562 31.398438 499.5 31.800781 C 498.898438 32.398438 496.898438 31.398438 494.398438 29.398438 C 488.601562 24.601562 477.601562 19.898438 479.5 23 C 480.300781 24.199219 479.601562 24.199219 473.101562 23 C 469.5 22.300781 467.199219 22.398438 465.898438 23.101562 C 464 24.101562 464.101562 24.300781 467.699219 26.898438 C 474.5 31.800781 475.601562 35 471.300781 36.800781 C 470.300781 37.199219 467.398438 38.800781 464.800781 40.300781 C 461.398438 42.398438 459.101562 43 456.300781 42.800781 L 452.5 42.5 L 451.398438 35.5 C 450.300781 27.898438 449.601562 26 447.601562 26 C 446.898438 26 444.898438 24.898438 443.101562 23.601562 C 440.699219 21.800781 438 21 433.101562 20.601562 C 429.5 20.199219 424.199219 19.800781 421.398438 19.5 C 416.398438 19 416.199219 19.101562 415 22 C 414.300781 23.699219 414 26.601562 414.300781 28.5 C 415.101562 33.398438 413.398438 33.800781 411.101562 29.101562 C 409.898438 26.898438 408 24.398438 406.800781 23.601562 C 404.199219 21.699219 400.5 21.398438 401.601562 23.199219 C 402.101562 24 401.101562 24.101562 397.898438 23.5 C 388.300781 21.699219 384.101562 23.101562 388 27 C 389.199219 28.199219 390 29.300781 389.800781 29.601562 C 389.300781 30 370.5 25.199219 360.300781 22 C 351.699219 19.398438 347.199219 19.398438 343.601562 22.300781 C 340.800781 24.5 340.800781 24.601562 342.300781 28.199219 C 344.199219 32.601562 343.398438 33.699219 340.398438 30.898438 C 338 28.601562 334 29 334 31.601562 C 334 33.300781 334.101562 33.300781 327.101562 31.601562 C 319.699219 29.699219 311 28.601562 311 29.5 C 311 29.898438 311.800781 30.800781 312.699219 31.5 C 314.199219 32.601562 313.699219 32.898438 308.800781 33.5 C 305.800781 33.898438 302.199219 34.699219 300.898438 35.398438 C 298.898438 36.398438 296.800781 36.199219 289 34.300781 C 283.800781 33 278.601562 31.5 277.5 31 C 273.199219 29.101562 254.699219 27.898438 245 28.898438 C 239.800781 29.5 235.199219 30 234.699219 30 C 234.300781 30 235.101562 28.199219 236.601562 25.898438 C 239 22.101562 239 21.699219 237.601562 19.5 C 236.699219 18.101562 236 16.199219 236 15.199219 C 236 13.199219 230.300781 8.699219 226.300781 7.601562 C 225.199219 7.199219 223.898438 6.199219 223.601562 5.398438 C 223.101562 4.101562 222.398438 4.398438 219.5 6.601562 C 217.601562 8 216 9.699219 216 10.300781 C 216 10.898438 215 12.398438 213.898438 13.601562 C 212.300781 15.300781 211.5 17.898438 210.898438 23.699219 C 210.5 28 210.101562 31.5 210.101562 31.601562 C 210 31.699219 204.601562 32 198 32.398438 C 191.398438 32.800781 180.5 33.699219 173.800781 34.5 C 167 35.300781 153.601562 36.398438 144 36.898438 C 134.300781 37.5 125 38.199219 123.300781 38.601562 C 120.199219 39.199219 120.101562 39.199219 119.800781 34.898438 C 119.5 30.699219 119.300781 30.398438 114 27.800781 C 111 26.300781 107.101562 25 105.398438 25 C 103.699219 25 101.101562 24.101562 99.699219 23 C 98.300781 21.898438 96.601562 21 95.800781 21 C 95.101562 21 93.5 20.300781 92.398438 19.5 C 90.398438 18.199219 90 18.300781 86.300781 21.800781 C 80.800781 26.898438 79.699219 29.300781 80.5 34.699219 C 81.300781 40 79.601562 45 77 45 C 76 45 74.199219 45.898438 72.898438 46.898438 L 70.5 48.898438 L 72.898438 53.5 C 74.199219 56 75.101562 58.199219 74.898438 58.5 C 74.601562 58.699219 70.398438 57.800781 65.5 56.5 C 60.5 55.101562 54 54 51 54.101562 C 48 54.101562 46.101562 54.398438 46.800781 54.699219 C 48.898438 55.5 48.101562 57 45.5 57 C 44.101562 57 41.300781 57.699219 39.300781 58.5 C 36 59.898438 35.800781 60.199219 37.101562 61.601562 C 38 62.398438 41 63.398438 43.800781 63.898438 C 49.898438 64.800781 54.101562 67.398438 63.5 76.101562 C 67.398438 79.601562 72.601562 84.101562 75.300781 85.898438 C 77.898438 87.898438 80 90.101562 80 91.199219 C 80 92.199219 79.800781 93 79.5 93 C 77.199219 93 64.300781 84.5 59.398438 79.800781 C 54.101562 74.601562 52.5 73.699219 46.898438 72.398438 C 37.300781 70.101562 24.898438 69 22.699219 70.199219 C 21.699219 70.699219 18.398438 71.101562 15.300781 71.101562 C 11.199219 71.101562 10 71.398438 10.898438 72.300781 C 11.5 72.898438 12 74.199219 12 75.101562 C 12 76.101562 13.398438 77.800781 15 79 C 16.699219 80.199219 18 81.800781 18 82.601562 C 18 84.398438 23.300781 87.601562 35.101562 92.898438 C 40.300781 95.199219 48.199219 99.800781 52.601562 103.101562 C 56.898438 106.398438 62.601562 110.300781 65.199219 111.800781 C 70.5 114.800781 71.199219 116 67.800781 116.101562 C 66.5 116.101562 63 117 60 118 L 54.5 119.800781 L 58 121.300781 C 61 122.601562 64.699219 123.5 74.898438 125.601562 C 77 126 77.199219 126.5 76.699219 129.601562 C 76.199219 132.5 76.601562 133.601562 78.5 135.601562 C 79.800781 136.898438 81.398438 138 82 138 C 83.101562 138 83.398438 148 82.300781 148.101562 C 81.800781 148.101562 74.398438 148.5 65.800781 148.898438 C 53.5 149.398438 49.699219 150 48.300781 151.199219 C 47.300781 152.101562 44.898438 153.199219 43 153.699219 C 40.699219 154.300781 39.101562 155.5 38.199219 157.300781 C 37.5 158.800781 36.398438 160 35.898438 160 C 35.199219 160 35.101562 161.199219 35.5 163 C 35.898438 165 35.800781 166 35 166 C 34.300781 166 34 166.601562 34.300781 167.398438 C 35 169.101562 31 172 28 172 C 26.898438 172 26 172.300781 26 172.699219 C 26 174.300781 45.800781 178 56.898438 178.601562 C 64 179 67.699219 179.601562 66.898438 180.101562 C 66.101562 180.601562 60.300781 182.601562 54 184.601562 C 37 189.898438 28 193.800781 28 195.898438 C 28 200.300781 36.398438 203 50 203 C 55 203 58 203.398438 58 204.101562 C 58 204.699219 57.101562 204.898438 56 204.5 C 54.898438 204.101562 53.101562 204.5 51.800781 205.398438 C 50.601562 206.300781 48.5 207 47.199219 207 C 45.898438 207 43.5 207.699219 41.800781 208.601562 C 40 209.5 37.300781 210.601562 35.699219 211.101562 C 32.5 212 20 219.101562 20 220 C 20 220.300781 21.5 221 23.199219 221.601562 C 25 222.101562 26.398438 223.101562 26.300781 223.800781 C 26.101562 224.398438 25.898438 225.5 25.800781 226.199219 C 25.601562 226.800781 26.800781 228 28.300781 228.800781 C 30.699219 230 31.699219 229.898438 36.199219 228.398438 C 40.398438 227 43.5 226.800781 52.398438 227.300781 L 63.5 227.898438 L 71.199219 235.300781 C 75.5 239.300781 79 243 79 243.601562 C 79 244.101562 76.601562 244.601562 73.699219 244.601562 C 68.300781 244.699219 64.601562 246.199219 59.699219 250.300781 C 57.101562 252.5 57 252.800781 58.699219 253.5 C 59.699219 253.898438 66.398438 254.398438 73.5 254.800781 C 80.699219 255.101562 85.800781 255.5 85 255.699219 C 80.699219 257 76.898438 259.398438 75.101562 261.898438 C 73.300781 264.398438 72.101562 264.898438 67 265.5 C 63.601562 265.898438 60.199219 266.898438 59.300781 267.800781 C 57.898438 269.199219 57.898438 269.5 60 271.199219 C 62.199219 273 67.800781 274.898438 71.5 275.101562 C 72.601562 275.199219 68.800781 275.800781 63 276.601562 C 51.101562 278.101562 41.601562 280.199219 44.300781 280.800781 C 46.699219 281.300781 46.398438 282.5 43.5 284.398438 C 42.101562 285.300781 41 286.398438 41 286.898438 C 41 287.398438 46.300781 287.699219 52.800781 287.601562 C 61.898438 287.5 66.601562 288 74.300781 289.800781 C 79.601562 291.101562 84 292.5 84 293 C 84 294.898438 80.898438 296.199219 77.699219 295.601562 C 75.800781 295.199219 72.699219 295.601562 70.398438 296.398438 C 66.300781 297.800781 66.398438 297.898438 73.199219 300 C 78 301.5 78.398438 302.199219 76.300781 305.898438 C 73.898438 310 75.5 311.5 82.300781 311.601562 L 87.5 311.601562 L 87.800781 316.699219 L 88.101562 321.800781 L 83.800781 322.398438 C 73.699219 323.800781 57.601562 323.398438 52.199219 321.601562 C 43.898438 318.800781 26.398438 319.699219 19.101562 323.199219 C 16.199219 324.699219 13.199219 325.601562 12.5 325.300781 C 11.800781 325.101562 10.898438 325.300781 10.601562 325.800781 C 9.300781 328 28.101562 334.5 38.601562 335.601562 C 44.699219 336.199219 47.601562 338 42.800781 338 C 40.601562 338.101562 40.601562 338.101562 42.398438 339.199219 C 44.300781 340.300781 44.199219 340.398438 41.601562 342.5 C 37.199219 346 39 347.398438 46.898438 346.699219 C 53.699219 346 55.199219 346.300781 74 351.300781 C 79.199219 352.699219 84.800781 354.101562 86.300781 354.398438 C 88.699219 355 89.101562 355.5 88.800781 357.800781 C 88.5 360.199219 88 360.601562 83.199219 361.300781 C 77 362.300781 63.398438 359.300781 50.5 354 C 45.5 352 40.398438 350.699219 37 350.5 C 34 350.398438 29.898438 350 28 349.601562 C 25.898438 349.199219 21.300781 349.601562 16.5 350.601562 C 12.101562 351.5 6.5 352.5 4.101562 352.699219 L -0.199219 353.199219 L 3.601562 355.5 C 5.800781 356.699219 9.300781 358.300781 11.5 359 C 13.699219 359.699219 16.5 360.898438 17.601562 361.699219 C 18.800781 362.398438 25.101562 364 31.601562 365.101562 C 38.101562 366.101562 43.5 367.199219 43.699219 367.300781 C 43.800781 367.5 42.398438 368.199219 40.5 368.898438 C 31.699219 372 39.800781 378.800781 54.5 380.699219 C 59.199219 381.300781 58.800781 381.5 45.5 383.699219 C 31.898438 385.898438 22.5 388.398438 20.5 390.101562 C 20 390.601562 20.898438 391 22.800781 391 L 26 391 L 22.300781 394.300781 C 15.898438 400.199219 19.898438 402.800781 30.300781 399.601562 C 34 398.5 37.398438 398.398438 46.699219 399.101562 C 53.101562 399.699219 60.199219 400.5 62.398438 401 C 64.699219 401.5 67.898438 402 69.699219 402 C 71.398438 402 73.101562 402.398438 73.5 402.898438 C 74.398438 404.5 69.898438 406.398438 63.5 407 C 57.5 407.699219 45 412.5 45 414.101562 C 45 414.601562 44.101562 415.898438 43 417 L 41 419 L 48.199219 419.101562 C 52.199219 419.101562 56.398438 419.5 57.398438 419.898438 C 59.300781 420.601562 59.300781 420.699219 57.101562 421.300781 C 54.199219 422 54.800781 424.101562 58.601562 426 C 60.199219 426.800781 61.699219 427.601562 62 427.800781 C 62.300781 428 61.699219 428.699219 60.699219 429.398438 C 58.199219 431.300781 58.601562 432.300781 61.601562 431.601562 C 65.199219 430.699219 63.800781 432.601562 58.898438 435 C 54.800781 437.199219 53.699219 438.601562 56.898438 437.699219 C 58.5 437.300781 58.898438 437.800781 59.199219 440.398438 L 59.5 443.5 L 90.5 443.898438 L 90.800781 446.398438 C 91.101562 448.898438 91 448.898438 86.199219 448.300781 C 83 448 81 448.199219 80.601562 448.898438 C 80.199219 449.5 78.398438 450 76.699219 450.101562 C 74.898438 450.101562 71.699219 450.898438 69.5 451.898438 C 65.199219 453.800781 65.398438 454.101562 73 455.5 C 80.398438 456.898438 84 458.101562 83.5 459 C 83.101562 459.601562 81.5 460 79.898438 460 C 78.199219 460 75.5 460.699219 73.898438 461.601562 C 71.199219 462.898438 70.898438 463.5 71.5 466.300781 C 71.898438 468.101562 73.101562 471 74.300781 472.898438 L 76.300781 476.300781 L 73.398438 475.800781 C 71.800781 475.5 66.601562 473.800781 61.800781 472.101562 C 52.101562 468.601562 39.101562 466.800781 42.300781 469.300781 C 43.898438 470.699219 43.898438 470.800781 41.800781 471.398438 C 40.5 471.699219 38.300781 472 36.898438 472 C 33 472 28 474 28 475.5 C 28 476.800781 31.5 478.199219 37.800781 479.5 C 41.800781 480.300781 41.5 481.898438 37.101562 484.199219 C 34.101562 485.699219 34 485.898438 36 486.5 C 37.398438 486.898438 37.898438 487.699219 37.601562 488.699219 C 37.300781 489.5 37 490.800781 37 491.601562 C 37 492.398438 36.300781 493 35.5 493 C 34.699219 493 34 493.398438 34 494 C 34 494.5 35.800781 495 37.898438 495 C 41.300781 495 42.800781 495.898438 49 501.300781 C 54.800781 506.300781 65.699219 519.5 69.398438 525.800781 C 69.898438 526.601562 68.898438 527.5 66.5 528.601562 C 64.398438 529.398438 63 530.300781 63.300781 530.601562 C 63.601562 530.898438 66.601562 531.5 70.101562 532 C 75.699219 532.800781 76.898438 533.398438 80 536.699219 L 83.5 540.5 L 79 540.800781 C 76.5 540.898438 73.601562 541.398438 72.5 541.898438 C 60.601562 546.800781 58.601562 548.898438 65.300781 549.101562 C 68 549.199219 67.601562 549.398438 63.199219 550.5 C 54.800781 552.601562 45.101562 559.800781 45 564.199219 C 45 565.101562 44.398438 566.101562 43.800781 566.300781 C 40.101562 567.800781 59.199219 565.898438 72.699219 563.398438 C 75.5 562.898438 76 563.101562 76 564.800781 C 76 566.898438 72.800781 568 65.5 568.300781 C 62 568.5 61.5 568.800781 61.199219 571.101562 C 61 572.898438 59.800781 574.300781 57.300781 575.601562 C 55.300781 576.601562 52.300781 578.300781 50.5 579.199219 C 46.199219 581.5 44.699219 583.5 44.5 587.699219 C 44.398438 589.601562 43.699219 591.601562 43 592 C 42.300781 592.398438 42.199219 593 42.601562 593.199219 C 43.398438 593.601562 57.800781 592.699219 64.601562 591.800781 C 67.5 591.398438 67.5 591.800781 64.5 601.300781 C 63.101562 605.601562 62 610.398438 62 612.101562 C 62 613.699219 61.300781 616.699219 60.5 618.699219 C 58.898438 622.398438 59.601562 623.898438 62.601562 624 C 63.199219 624 64.300781 624.699219 65 625.5 C 66.5 627.300781 65.699219 627.398438 62.800781 625.898438 C 61.699219 625.300781 60.601562 625.101562 60.199219 625.398438 C 59.300781 626.300781 65.101562 632 67 632 C 70.101562 632 78.601562 621.800781 81.398438 614.800781 C 82.800781 611.199219 84 607.699219 84 607.101562 C 84 604.699219 86.101562 606.300781 90.398438 611.898438 C 95.5 618.5 95.699219 619.101562 93.398438 622.5 C 91.699219 625 92.199219 627 94.5 627 C 95.199219 627 96 627.699219 96.300781 628.5 C 96.699219 629.300781 98.699219 631.101562 101 632.601562 L 105.101562 635.300781 L 107.699219 633.398438 C 110.101562 631.601562 115 623.199219 116.5 618.601562 C 117 616.699219 117.199219 616.800781 119.601562 619.300781 C 123.601562 623.699219 127 625.601562 128 624.101562 C 128.699219 622.898438 133.601562 623.101562 139 624.601562 C 139.800781 624.800781 141.101562 624.601562 141.898438 624.101562 C 143 623.398438 142.800781 622.800781 141.101562 621.101562 C 137.101562 617.101562 138.300781 616 146.199219 616 C 152.601562 616 153.699219 616.300781 156.101562 618.601562 C 158.601562 621 158.699219 621.398438 157.5 624.300781 C 156.199219 627.398438 156.199219 627.5 162.101562 633.199219 C 165.300781 636.398438 168.5 639 169.199219 639 C 169.898438 639 172 640.101562 174 641.5 C 177.5 643.898438 189.199219 646.199219 196.699219 645.898438 C 198.199219 645.898438 200.5 646.101562 201.800781 646.5 C 203.601562 647.101562 204 646.898438 204 645.101562 C 204 642.601562 205.199219 642.398438 208.601562 644.699219 C 210.699219 646 211.300781 646.101562 212 645 C 212.601562 644 214 644 219.300781 645 C 224.101562 645.898438 226.300781 645.898438 227.898438 645.101562 C 230.699219 643.601562 230.601562 641.398438 227.5 639.398438 C 225.5 638.101562 225.101562 637.199219 225.601562 635.101562 C 226.199219 632.601562 231.800781 623 232.699219 623 C 232.898438 623 236.300781 624.699219 240.300781 626.898438 C 249.5 631.800781 252.101562 632.398438 256.601562 630.5 C 260.101562 629.101562 260.300781 629.101562 262.199219 631.5 C 265.101562 635.199219 269.199219 637 274.601562 637 C 278.699219 637 279.699219 636.5 282.601562 633.398438 L 286 629.898438 L 291.699219 635.300781 C 299.199219 642.300781 304.800781 645.601562 306.300781 644.101562 C 308.199219 642.199219 309.601562 642.898438 311.101562 646.199219 C 312 648.300781 313.300781 649.601562 314.800781 649.800781 C 317.800781 650.199219 322 647.5 322 645.101562 C 322 643 326.398438 640.898438 340 636.5 C 344.699219 635 349.101562 633.300781 349.699219 632.800781 C 350.601562 632.101562 353.101562 632.101562 357.199219 632.800781 C 367.101562 634.5 375 635 375 633.898438 C 375 633.300781 374.5 632 373.898438 630.800781 C 373.300781 629.699219 373 628.601562 373.300781 628.398438 C 373.5 628.199219 383.101562 628.898438 394.601562 630.101562 C 406.101562 631.199219 419.398438 632.398438 424.101562 632.699219 C 432.601562 633.199219 432.699219 633.199219 435.398438 630.398438 C 436.800781 628.800781 438.601562 626.300781 439.300781 624.800781 C 440.199219 622.601562 441.199219 622 443.699219 622 C 447.398438 622 447.699219 622.601562 445.398438 625.101562 C 444.601562 626 443.699219 628.601562 443.5 630.898438 L 443.101562 634.898438 L 446.300781 634.300781 C 451.101562 633.398438 462.800781 629.101562 469.199219 625.898438 C 472.398438 624.300781 475.601562 623 476.398438 623 C 477.199219 623 478.699219 624.601562 479.898438 626.5 C 482.300781 630.699219 489.898438 634.601562 497.300781 635.601562 C 501.199219 636.199219 502 636.601562 501.398438 637.898438 C 499.398438 642.699219 499.601562 643.300781 502.699219 642.601562 C 505.398438 642 505.800781 642.199219 506.398438 644.300781 C 506.699219 645.699219 508.101562 647.5 509.5 648.398438 C 513 650.699219 518.398438 649 520.199219 645.199219 C 521.300781 643 523.300781 642 531.5 639.398438 C 543.300781 635.601562 546.300781 635.300781 549.898438 637.898438 C 551.398438 639 554.898438 640.398438 557.601562 641.101562 C 563.699219 642.601562 567.101562 644.800781 566.800781 646.898438 C 566.398438 648.800781 569.898438 648.699219 580 646.398438 C 591.898438 643.699219 594.199219 642.898438 599.398438 639.398438 C 602.300781 637.5 612.898438 632.601562 623.101562 628.398438 L 641.5 620.898438 L 652.800781 622.601562 L 664.101562 624.300781 L 667.898438 628.699219 C 670.101562 631.101562 673.699219 636.199219 676 640.101562 C 681.800781 649.601562 685.898438 651.5 695.300781 648.898438 C 699.601562 647.699219 706.398438 642.101562 708.601562 637.800781 C 709.398438 636.300781 710.398438 635 710.800781 635 C 711.300781 635 713.5 638.300781 715.800781 642.300781 C 719.101562 648.101562 721 650.300781 725 652.800781 C 731 656.601562 732 656.699219 732 653.898438 C 732 652.398438 732.5 652 733.800781 652.398438 C 742.300781 655 750 655.601562 753 654 C 754.601562 653.101562 754.800781 652.601562 753.898438 650.601562 C 753.300781 649.300781 751.699219 647.699219 750.398438 647.101562 C 748.699219 646.300781 748 645.199219 748 643.101562 C 748 640 755.5 624 757 624 C 758.800781 624 759.101562 626.101562 757.601562 628.199219 C 755.800781 630.699219 755.5 635 756.898438 635 C 757.5 635 759.199219 636.300781 760.699219 637.898438 C 763.5 640.800781 770.101562 643 775.898438 643 C 777.5 643 779.199219 643.5 779.5 644 C 780.101562 645 783.300781 644.898438 792.699219 643.398438 C 794.898438 643.101562 798.101562 641 802 637.300781 C 807.199219 632.5 808 632.101562 808 634 C 808 637.398438 813.699219 648.699219 816.699219 650.898438 C 819.699219 653.398438 822 653.601562 822 651.5 C 822 649.601562 821.601562 649.601562 828.5 652 C 837.101562 655 843 654.601562 843 651 C 843 650 841.800781 648.300781 840.398438 647.300781 C 837.101562 644.898438 837.898438 642.800781 845.800781 632.898438 C 849.101562 628.699219 852.101562 624.398438 852.398438 623.300781 C 852.800781 622.101562 854.398438 619.398438 856 617.101562 C 858.699219 613.5 859.5 613 863 613 C 866.699219 613 867 613.199219 867 615.800781 C 867 617.300781 867.398438 620 868 621.898438 C 868.699219 624.5 868.5 627.101562 867 632.800781 C 864.5 642.199219 864.5 643.101562 867 645.300781 C 868.101562 646.199219 869 647.699219 869 648.5 C 869 650.300781 877 655.601562 881 656.5 C 882.601562 656.800781 884.101562 657.800781 884.398438 658.601562 C 884.699219 659.398438 885.398438 660 886 660 C 887.699219 660 891.898438 654.699219 892 652.699219 C 892 651.699219 892.5 649.898438 893.199219 648.699219 C 893.898438 647.5 894.398438 645.601562 894.398438 644.601562 C 894.5 643.398438 896.800781 640.800781 900.199219 638.300781 C 904.601562 635 906.199219 633 907 630.101562 C 907.5 628 908.898438 625.5 910 624.5 C 912 622.699219 912.199219 622.699219 917.601562 624.5 C 920.800781 625.601562 923.898438 627.398438 924.898438 628.898438 L 926.800781 631.398438 L 930.300781 628.699219 C 932.300781 627.199219 934.199219 625.101562 934.5 624 C 935.398438 621 937 621.601562 937 624.800781 L 937 627.699219 L 944.800781 627.300781 C 949 627.101562 953.398438 626.5 954.5 626 C 955.601562 625.5 958.300781 624.898438 960.5 624.800781 C 963.199219 624.601562 964.5 624 964.5 623 C 964.5 621.699219 967.5 620.300781 971.101562 620.101562 C 972 620 974.800781 622.699219 977.300781 626 C 981.699219 631.601562 982.300781 632 986.101562 632 C 988.699219 632 991.300781 631.199219 993.300781 629.800781 L 996.300781 627.601562 L 997.699219 629.699219 C 998.5 630.898438 1001.398438 634.601562 1004.101562 638 C 1006.800781 641.398438 1009 644.601562 1009 645.101562 C 1009 645.699219 1010.5 646.699219 1012.398438 647.5 C 1015.898438 649 1018 651 1016.101562 651 C 1015.5 651 1015 651.398438 1015 651.898438 C 1015 653 1030.199219 652.398438 1036 651.101562 C 1043.5 649.300781 1049.101562 649.800781 1053.5 652.5 C 1057.601562 655 1060.601562 655.800781 1059.5 654 C 1058 651.601562 1060.398438 651.300781 1067 653 C 1074.699219 655 1081 654.300781 1081 651.5 C 1081 649.800781 1077.5 646 1076 646 C 1074.601562 646 1074.800781 641.398438 1076.300781 640.300781 C 1076.898438 639.699219 1081.800781 638.300781 1087.101562 637.101562 C 1092.398438 635.898438 1102.398438 633.199219 1109.300781 631.101562 L 1122 627.199219 L 1128.699219 628.601562 C 1136.800781 630.300781 1160.101562 633.5 1179.5 635.5 C 1191.101562 636.800781 1194 637.398438 1197 639.398438 C 1198.898438 640.800781 1202.300781 642.601562 1204.5 643.5 C 1206.699219 644.5 1209.898438 645.898438 1211.699219 646.699219 C 1214.800781 648.199219 1214.898438 648.199219 1221.898438 642.601562 C 1230.101562 636 1231 634.699219 1231 628.699219 L 1231 624.199219 L 1245.699219 624.800781 C 1256.601562 625.199219 1260.101562 625 1259.601562 624.199219 C 1259.199219 623.5 1258 623 1256.898438 623 C 1253.601562 623 1254.800781 621.398438 1259.300781 620 C 1267.398438 617.601562 1269 616.800781 1269 615 C 1269 612.601562 1264.199219 611 1257.199219 611 C 1253.5 611 1249.898438 610.199219 1245.898438 608.398438 C 1242.601562 606.898438 1240 605.601562 1240 605.5 C 1240 602.699219 1245 587.398438 1248 581.101562 C 1250.5 575.898438 1251.800781 572 1251.398438 570.800781 C 1251.101562 569.699219 1251.5 568.101562 1252.5 567.101562 C 1254 565.398438 1253.898438 565 1251.398438 562.101562 C 1249.898438 560.300781 1246.699219 557.800781 1244.101562 556.5 C 1241.601562 555.199219 1240 554.101562 1240.601562 554 C 1241.300781 554 1248.5 554.898438 1256.601562 556 C 1272.601562 558.101562 1289 558.601562 1289 557 C 1289 556.398438 1287.898438 556 1286.5 556 C 1282.398438 556 1283.699219 554.199219 1288.300781 553.5 C 1296.300781 552.300781 1297.898438 551.898438 1299.101562 550.398438 C 1301.199219 547.800781 1298.699219 546.800781 1288.300781 546 C 1277.898438 545.199219 1273.601562 543.800781 1263.199219 537.699219 C 1260 535.800781 1253.800781 532.800781 1249.199219 531 C 1244.699219 529.101562 1241 527.300781 1241 527 C 1241 526.601562 1244.800781 526 1249.398438 525.699219 C 1259.101562 525 1271.5 521.800781 1266.601562 521.199219 L 1263.800781 520.800781 L 1267.398438 518.300781 C 1272.199219 515.101562 1271.601562 513.398438 1265.898438 513.699219 C 1249.101562 514.5 1237 512.800781 1234.601562 509.398438 C 1233.601562 508.199219 1231.5 507.5 1227.199219 507.199219 L 1221.101562 506.800781 L 1226.800781 503.898438 C 1229.898438 502.300781 1233.601562 500.101562 1235 499 C 1237.199219 497.300781 1237.199219 497 1235.601562 497 C 1234.300781 497 1234 496.5 1234.398438 495.398438 C 1234.800781 494.5 1234.601562 493.199219 1234 492.5 C 1233.199219 491.5 1233.601562 490.699219 1235.5 489.199219 C 1236.898438 488.101562 1238 486.898438 1238 486.5 C 1238 486.101562 1233.398438 486.101562 1227.699219 486.5 C 1219.199219 487 1217.199219 486.898438 1216.199219 485.699219 C 1215.199219 484.5 1215.5 483.898438 1218.199219 482.300781 C 1220 481.199219 1224.199219 477.898438 1227.5 474.898438 C 1230.800781 471.898438 1236.398438 467.199219 1240 464.5 C 1248.699219 457.898438 1252 454.898438 1252 453.398438 C 1252 450.101562 1239.199219 448.601562 1229.300781 450.800781 C 1226.898438 451.398438 1225 451.601562 1225 451.5 C 1225 451.199219 1237.300781 442.199219 1239.800781 440.699219 C 1240.601562 440.199219 1245 440.5 1250.398438 441.601562 C 1263.199219 444 1279.398438 442.601562 1288.398438 438.199219 C 1291.800781 436.601562 1295.601562 434.800781 1296.898438 434.300781 C 1299 433.5 1298.699219 433.199219 1293.398438 431.800781 C 1282 428.699219 1276.300781 427.898438 1259.601562 427 C 1250.300781 426.5 1238.300781 425.800781 1233.101562 425.398438 L 1223.5 424.699219 L 1231 423.398438 C 1235.101562 422.800781 1239.898438 421.699219 1241.5 421 C 1244.101562 419.898438 1244.300781 419.699219 1242.601562 419.101562 C 1240.898438 418.5 1240.898438 418.199219 1242.300781 416.800781 C 1245.101562 414.101562 1242.398438 413 1234.101562 413.699219 C 1229.300781 414 1222.5 413.601562 1215.699219 412.601562 C 1209.800781 411.699219 1204.699219 411 1204.5 411 C 1204.199219 411 1204 410.5 1204 410 C 1204 409.398438 1205.699219 409 1207.800781 409 C 1214.699219 409 1215.699219 408.300781 1216.398438 403 C 1216.898438 399 1217.5 398.101562 1219.398438 397.601562 C 1220.800781 397.300781 1223.199219 395.800781 1225 394.398438 C 1227.699219 392 1228.699219 391.800781 1233.800781 392.300781 C 1242.800781 393.101562 1259 389 1259 386 C 1259 385.398438 1260 385 1261.300781 384.898438 C 1263.101562 384.800781 1263 384.601562 1260.5 383.898438 C 1258.898438 383.5 1255.699219 382.800781 1253.601562 382.5 C 1251 382.101562 1250.101562 381.601562 1250.898438 381 C 1252.699219 379.898438 1251.300781 379.300781 1245 378.5 C 1241.699219 378.101562 1236.800781 376.300781 1232.5 374 C 1228.699219 372 1222 368.800781 1217.800781 367 C 1213.5 365.101562 1210 363.101562 1210 362.398438 C 1210 360.898438 1224.601562 347 1226.300781 346.898438 C 1226.898438 346.898438 1232.398438 346.898438 1238.300781 347 C 1250.5 347.101562 1256 345.898438 1256 343 C 1256 340.5 1251.601562 336.5 1246.300781 334 C 1243.898438 332.898438 1242 331.699219 1242 331.5 C 1242 331.199219 1248.898438 330.898438 1257.300781 331 C 1265.601562 331 1274.5 330.699219 1277 330.199219 L 1281.5 329.300781 L 1278.101562 328.398438 L 1274.601562 327.398438 L 1279.898438 325.199219 C 1284.898438 323 1287.300781 320 1286.300781 317.398438 C 1285.800781 316 1279.199219 314 1275.101562 314 C 1271.300781 314 1259.199219 307.398438 1253.5 302.199219 C 1251.300781 300.101562 1246.199219 296.5 1242.199219 294 C 1238.300781 291.5 1235.101562 289.101562 1235.300781 288.601562 C 1235.5 288.101562 1238.699219 285.898438 1242.5 283.601562 C 1246.199219 281.300781 1250 278.398438 1250.800781 277.199219 C 1252 275.300781 1251.898438 275 1249.101562 273.601562 C 1247.300781 272.601562 1243.5 272 1239.300781 272 C 1234.5 272 1232.898438 271.699219 1234 271 C 1235.300781 270.101562 1235.300781 269.898438 1234 269 C 1233.101562 268.398438 1232.898438 267.800781 1233.5 267.199219 C 1234.101562 266.800781 1236.601562 264.699219 1239.300781 262.601562 C 1241.898438 260.601562 1244 258.199219 1244 257.398438 C 1244 255.800781 1242.398438 255.5 1241.5 257 C 1240.300781 258.898438 1239.101562 258 1238.398438 254.5 C 1237.699219 250.699219 1235.601562 249.5 1231.101562 250.5 C 1228.5 251 1228.300781 250.898438 1228.699219 248.601562 C 1229.101562 246.898438 1231 245 1235 242.601562 C 1238.199219 240.601562 1241 238.101562 1241.300781 237 C 1241.601562 235.601562 1242.601562 235 1244.5 235 C 1248.101562 235 1250.898438 233.5 1254.699219 229.398438 C 1257.601562 226.300781 1257.800781 225.800781 1256.199219 225.199219 C 1254 224.300781 1228.398438 224.300781 1224.300781 225.199219 C 1221.5 225.800781 1220.800781 225.601562 1219.398438 223.398438 C 1218.5 222.101562 1218 220.601562 1218.398438 220.300781 C 1218.800781 219.898438 1225.398438 219.199219 1233.101562 218.699219 C 1244.898438 218 1247.5 217.5 1249.101562 215.898438 C 1251.5 213.5 1254.898438 213.199219 1253 215.5 C 1252 216.699219 1252 217 1253.300781 217 C 1255.300781 217 1263 213.101562 1263 212 C 1263 211.199219 1255.5 210 1249.800781 210 C 1247.699219 210 1244.300781 209.300781 1242.199219 208.398438 C 1240.199219 207.601562 1235.5 206.601562 1231.699219 206.300781 C 1228 206 1225.101562 205.5 1225.398438 205.300781 C 1225.601562 205.101562 1229.601562 203.800781 1234.199219 202.601562 C 1238.699219 201.300781 1244.898438 198.898438 1247.800781 197.101562 C 1250.699219 195.398438 1253.5 194 1254 194 C 1255.398438 194 1255.199219 192 1253.800781 191.5 C 1253.101562 191.199219 1243.101562 190.601562 1231.5 190.101562 C 1211.101562 189.101562 1206 188.5 1206 187 C 1206 186.601562 1210 185.101562 1214.800781 183.601562 C 1222.800781 181.199219 1224.5 181 1232.800781 181.601562 L 1242 182.300781 L 1245.800781 178.398438 C 1247.898438 176.101562 1251.199219 173.898438 1253.601562 173.199219 C 1255.898438 172.5 1258.300781 171.300781 1259 170.601562 C 1259.898438 169.398438 1262.199219 169.199219 1270.601562 169.699219 C 1280.800781 170.300781 1283.199219 169.800781 1278.800781 168.101562 C 1276.5 167.199219 1276.5 167.199219 1279.300781 166.101562 C 1280.898438 165.5 1283.601562 165 1285.300781 165 C 1288.898438 165 1293 162.601562 1293 160.5 C 1293 159.101562 1285.398438 157 1280.199219 157 C 1278.699219 157 1275.699219 156.101562 1273.5 155.101562 L 1269.5 153.300781 L 1272.5 151.699219 L 1275.5 150.101562 L 1272.800781 150 C 1269.199219 150 1269.300781 148.601562 1273 145.800781 C 1279.199219 141.199219 1275.800781 139.5 1266 142.199219 C 1262.398438 143.199219 1258.800781 144 1257.898438 144 C 1257 144 1251.398438 140.800781 1245.398438 136.898438 C 1239.398438 133 1231.800781 128.5 1228.5 126.800781 C 1225.199219 125.101562 1219.601562 121.800781 1216.101562 119.398438 C 1212.601562 117 1209.101562 115 1208.398438 115 C 1207.601562 115 1207 114.601562 1207 114.199219 C 1207 113.300781 1222 112 1233.101562 112 C 1241.898438 112 1246 110.5 1246 107.398438 C 1246 105.199219 1246.398438 105 1251.398438 105 C 1254.300781 105 1258.699219 104.300781 1261 103.5 C 1263.300781 102.699219 1266.101562 102 1267.199219 102 C 1270 102 1275.5 99.199219 1278.398438 96.300781 C 1279.800781 94.898438 1281.300781 94.101562 1281.800781 94.398438 C 1283 95.101562 1291 92.898438 1291 91.898438 C 1291 90.5 1287.101562 89.300781 1280.398438 88.5 C 1273.5 87.601562 1268.199219 85.199219 1262 80 C 1259.5 78 1255.5 75.300781 1253 74 C 1250.5 72.699219 1246 70 1243 68 C 1240 66 1235.601562 63.300781 1233.300781 62.101562 C 1228.699219 59.800781 1227.5 57.398438 1228.199219 51.5 C 1228.398438 49.601562 1228.199219 47.898438 1227.800781 47.800781 C 1227.398438 47.601562 1226.800781 44.199219 1226.398438 40.300781 C 1226 36.300781 1225.101562 32.5 1224.398438 31.898438 C 1221.699219 29.601562 1215.300781 29.699219 1209.601562 32 C 1206.5 33.199219 1203.601562 34.800781 1202.898438 35.601562 C 1200.800781 38.199219 1200 37 1200 31.199219 C 1200 27.300781 1199.398438 24.5 1198 22.199219 C 1196 19 1193.5 18 1192.800781 20.101562 C 1192.601562 20.800781 1190.5 20.300781 1187.101562 18.5 C 1181.5 15.699219 1177.699219 15.699219 1176.601562 18.5 C 1176.300781 19.398438 1176.601562 20.898438 1177.199219 22 C 1178.699219 24.398438 1176.398438 27.898438 1169.898438 32.898438 C 1165.699219 36.101562 1165.300781 36.199219 1159 35.699219 C 1148.398438 34.699219 1127.898438 32.101562 1122.101562 31 C 1113.300781 29.300781 1109.199219 29.699219 1106.699219 32.398438 L 1104.5 34.699219 L 1092 32.398438 C 1085.101562 31.101562 1076.898438 29.800781 1073.699219 29.398438 L 1067.800781 28.800781 L 1065.800781 23.898438 C 1063.800781 19.199219 1061.601562 17.601562 1060.800781 20.199219 C 1060.5 21 1059.199219 20.699219 1056.699219 19.101562 C 1054.601562 17.800781 1051.898438 17 1050.300781 17.199219 C 1047.898438 17.5 1047.5 17.898438 1047.5 20.898438 C 1047.5 23.898438 1047.101562 24.398438 1043.601562 25.601562 C 1038.601562 27.398438 1037.101562 28.699219 1037.601562 30.800781 C 1038.101562 32.699219 1037.5 33.699219 1034.5 36.199219 C 1032.800781 37.601562 1031.699219 37.699219 1028.5 36.898438 C 1026.300781 36.398438 1019.898438 35.5 1014.199219 35 C 1005 34.101562 1003.699219 33.699219 1001.699219 31.398438 C 1000 29.5 998.101562 28.699219 993.800781 28.101562 C 990.601562 27.699219 987.199219 26.601562 986.101562 25.601562 C 982 21.898438 952 17.101562 953.300781 20.300781 C 953.699219 21.398438 952.800781 21.800781 949.699219 21.800781 C 943.300781 21.800781 928.601562 23.898438 919.101562 26 C 907.5 28.5 887.699219 32 884.800781 32 C 882.5 31.898438 882.5 31.898438 885.101562 30.5 C 888.699219 28.5 889.300781 26.398438 887.398438 22.5 C 886.5 20.601562 886.101562 18.601562 886.5 18.101562 C 887.601562 16.300781 881.601562 16.398438 868 18.601562 C 861.199219 19.699219 856.601562 21.101562 851.601562 23.699219 C 847.800781 25.601562 843.300781 27.199219 841.601562 27.199219 C 839.898438 27.101562 834 26.898438 828.5 26.601562 C 822.800781 26.300781 814.398438 26.699219 809 27.398438 L 799.601562 28.699219 L 794.800781 24.699219 C 790.300781 20.898438 789.800781 20.800781 787.398438 22 C 786 22.800781 783.300781 25 781.300781 26.898438 L 777.800781 30.300781 L 759.101562 31.601562 C 748.898438 32.398438 730.199219 33.800781 717.601562 34.898438 C 705 36 694.300781 36.699219 693.800781 36.398438 C 693.300781 36.101562 693.398438 35.199219 694 34.5 C 697.398438 30.398438 688.5 26.398438 677.800781 27.199219 C 672.101562 27.699219 669.699219 27.199219 662.101562 24.5 C 661.101562 24.101562 662.101562 22.601562 665.300781 19.5 C 667.898438 17 670 14.199219 670 13.101562 C 670 12 670.300781 10.5 670.601562 9.601562 C 671.398438 7.5 668.699219 7.5 665.5 9.601562 C 663.101562 11.199219 663 11.101562 661.398438 7.601562 C 658.5 1.601562 651.101562 -0.699219 645.601562 2.898438 Z M 622.398438 31.601562 C 622.699219 32.398438 622.601562 32.898438 622.199219 32.699219 C 621.800781 32.5 620.699219 32 619.699219 31.699219 C 618.699219 31.300781 618.101562 30.601562 618.5 30.101562 C 619.300781 28.800781 621.699219 29.800781 622.398438 31.601562 Z M 958.300781 33.898438 C 957.601562 36.601562 954 39.898438 954 37.898438 C 954 36.101562 956.800781 32 958 32 C 958.398438 32 958.601562 32.898438 958.300781 33.898438 Z M 348.5 37 C 348.800781 37.601562 348.398438 37.699219 347.601562 37.398438 C 345.800781 36.699219 345.5 36 346.898438 36 C 347.5 36 348.199219 36.398438 348.5 37 Z M 937.398438 40.199219 C 934.699219 45.101562 932.800781 46 925.601562 46 L 918.5 45.898438 L 921.5 44.300781 C 924.601562 42.601562 934.5 39.300781 936.800781 39.101562 C 937.601562 39 937.800781 39.5 937.398438 40.199219 Z M 491.398438 42.101562 C 490.601562 43.5 489 43.101562 489 41.5 C 489 40.601562 489.601562 40.300781 490.5 40.601562 C 491.300781 41 491.699219 41.601562 491.398438 42.101562 Z M 906.601562 42.5 C 904.398438 44.199219 902 44.5 902 43.101562 C 902 42.601562 903.199219 41.898438 904.800781 41.699219 C 906.300781 41.5 907.699219 41.199219 908 41.199219 C 908.300781 41.101562 907.601562 41.699219 906.601562 42.5 Z M 977.800781 46.101562 C 977.5 46.898438 976.699219 46.601562 975.199219 45 C 974 43.699219 973.300781 42.300781 973.699219 41.699219 C 974.5 40.398438 978.300781 44.5 977.800781 46.101562 Z M 794 44 C 792 45.300781 789.699219 45.300781 790.5 44 C 790.800781 43.398438 792.101562 43 793.300781 43 C 795.101562 43 795.199219 43.199219 794 44 Z M 895.5 45 C 895.898438 45.601562 894.101562 46 890.800781 45.898438 C 885.898438 45.699219 885.800781 45.699219 889 45 C 894.199219 43.898438 894.800781 43.898438 895.5 45 Z M 1205.898438 57.699219 C 1205.898438 58.199219 1205.5 59.398438 1205 60.5 C 1204.199219 62.300781 1204.101562 62.199219 1204.101562 59.699219 C 1204 58.199219 1204.5 57 1205 57 C 1205.601562 57 1206 57.300781 1205.898438 57.699219 Z M 1206 67.199219 C 1206 67.699219 1205.601562 68 1205 68 C 1204.5 68 1204 67 1204 65.699219 C 1204 63.898438 1204.199219 63.800781 1205 65 C 1205.5 65.800781 1206 66.800781 1206 67.199219 Z M 1238.300781 78.800781 C 1240.300781 80.199219 1241.800781 81.5 1241.601562 81.800781 C 1241.300781 82 1239 81.898438 1236.5 81.601562 C 1232.898438 81 1231.699219 80.300781 1230.5 78 C 1229.699219 76.398438 1229 74.601562 1229 73.898438 C 1229 72.800781 1229.398438 73 1238.300781 78.800781 Z M 1212.5 139 C 1215.699219 140.101562 1219.898438 141 1221.898438 141 C 1224.601562 141 1225.101562 141.300781 1224 142 C 1223.199219 142.5 1220.101562 143 1217.199219 143 C 1213.199219 143 1211 142.398438 1208 140.398438 C 1205.800781 138.898438 1204 137.601562 1204 137.398438 C 1204 136.5 1207 137.101562 1212.5 139 Z M 83.300781 167 C 83.800781 168.898438 83.300781 169 77.199219 169 C 73.601562 169 71 168.699219 71.398438 168.199219 C 72 167.699219 78.101562 165.898438 82.101562 165.101562 C 82.5 165.101562 83 165.898438 83.300781 167 Z M 82 211 C 82 212.300781 80.898438 212.300781 79 211 C 77.800781 210.199219 77.898438 210 79.800781 210 C 81 210 82 210.398438 82 211 Z M 85.5 232 C 85.800781 232.5 85.699219 233 85.101562 233 C 84.601562 233 83.800781 232.5 83.5 232 C 83.199219 231.398438 83.300781 231 83.898438 231 C 84.398438 231 85.199219 231.398438 85.5 232 Z M 1222.5 250.199219 C 1227.601562 251.601562 1227.800781 252 1225.101562 254.398438 C 1223.398438 256 1222.898438 256 1220.800781 254.699219 C 1219.601562 253.898438 1217 252.898438 1215.300781 252.5 C 1211.699219 251.800781 1211 250.398438 1213.800781 249.699219 C 1216.800781 248.898438 1217.800781 249 1222.5 250.199219 Z M 1218.5 257 C 1218.199219 257.5 1217.300781 258 1216.699219 258 C 1216 258 1216.101562 257.601562 1217 257 C 1218.898438 255.800781 1219.300781 255.800781 1218.5 257 Z M 1206.5 259 C 1206.800781 259.5 1206.398438 260 1205.601562 260 C 1204.699219 260 1204 259.5 1204 259 C 1204 258.398438 1204.398438 258 1204.898438 258 C 1205.5 258 1206.199219 258.398438 1206.5 259 Z M 86.101562 282.5 C 86.101562 283.898438 82.398438 284.300781 79.101562 283.398438 C 76.601562 282.699219 76.699219 282.601562 80.5 282 C 85.300781 281.199219 86.199219 281.199219 86.101562 282.5 Z M 1231.898438 302.601562 C 1235.300781 305.199219 1237.898438 307.398438 1237.601562 307.699219 C 1237.398438 307.898438 1232.800781 306.699219 1227.5 304.898438 L 1217.800781 301.699219 L 1220.101562 299.898438 C 1223.601562 297.199219 1225 297.5 1231.898438 302.601562 Z M 85.898438 343.898438 C 87.300781 344.300781 88.5 345.101562 88.800781 345.800781 C 89.300781 347.398438 83.398438 346.601562 78.5 344.5 L 75.5 343.199219 L 79.5 343.199219 C 81.699219 343.199219 84.601562 343.5 85.898438 343.898438 Z M 1213.800781 373 C 1220.601562 376.601562 1220.898438 377 1215.5 376.398438 C 1209.601562 375.601562 1210.398438 376 1209.601562 373.199219 C 1208.699219 370.5 1209.101562 370.5 1213.800781 373 Z M 83.5 390.300781 C 87.898438 391.300781 89.601562 392.101562 89.800781 393.398438 C 90.199219 395 89.800781 395.199219 87.101562 394.699219 C 85.398438 394.300781 79.800781 393.5 74.699219 392.800781 L 65.5 391.601562 L 70.5 390.398438 C 76.898438 388.898438 76.398438 388.898438 83.5 390.300781 Z M 1212.398438 419 C 1208.800781 420.398438 1204.699219 420.601562 1204.300781 419.199219 C 1204 418.300781 1205.300781 418 1209.199219 418.101562 C 1213.101562 418.101562 1213.898438 418.398438 1212.398438 419 Z M 90.699219 433.601562 C 90.398438 433.898438 89.5 434 88.800781 433.699219 C 88 433.398438 88.300781 433.101562 89.398438 433.101562 C 90.5 433 91.101562 433.300781 90.699219 433.601562 Z M 1207.398438 447.800781 C 1207.601562 448.199219 1207 449.101562 1205.898438 449.800781 C 1204.398438 450.800781 1204 450.800781 1204 449.699219 C 1204 447.300781 1206.300781 446.101562 1207.398438 447.800781 Z M 91.5 461 C 91.800781 461.601562 91 462 89.601562 462 C 88.199219 462 86.800781 461.5 86.5 461 C 86.199219 460.398438 87 460 88.398438 460 C 89.800781 460 91.199219 460.398438 91.5 461 Z M 1208 468.898438 C 1208 469.398438 1207.101562 470 1206 470.300781 C 1203.800781 470.898438 1203.199219 469.5 1205.300781 468.699219 C 1207.199219 467.898438 1208 467.898438 1208 468.898438 Z M 82.601562 492 C 84.199219 492 86.398438 493.5 89 496.199219 C 92.300781 499.800781 93 501.199219 93 504.699219 C 93 508.101562 92.601562 509 90.800781 509.601562 C 89.101562 510.101562 87.699219 509.199219 83.800781 505.199219 C 77.398438 498.601562 74.199219 489.699219 78.800781 491.5 C 79.5 491.800781 81.300781 492 82.601562 492 Z M 1227.800781 518.101562 C 1228.800781 518.199219 1228.398438 518.5 1227 518.898438 C 1223.800781 519.898438 1220.300781 519.101562 1222.199219 517.898438 C 1222.898438 517.398438 1224.101562 517.199219 1224.800781 517.5 C 1225.601562 517.800781 1226.898438 518 1227.800781 518.101562 Z M 1243 542 L 1246.5 543.898438 L 1242 543.898438 C 1239.5 544 1236.5 543.699219 1235.199219 543.398438 C 1233.101562 542.800781 1233.101562 542.699219 1234.699219 541.398438 C 1237.101562 539.601562 1238.800781 539.699219 1243 542 Z M 1207.398438 601.898438 C 1207.800781 602.398438 1207.101562 602.601562 1206 602.300781 C 1203.699219 601.699219 1203.398438 601 1205.398438 601 C 1206.199219 601 1207.101562 601.398438 1207.398438 601.898438 Z M 1207.5 606 C 1207.199219 606.5 1206.199219 607 1205.398438 607 C 1204.601562 607 1204 606.5 1204 606 C 1204 605.398438 1204.898438 605 1206.101562 605 C 1207.199219 605 1207.800781 605.398438 1207.5 606 Z M 371.300781 613.699219 C 370.601562 613.898438 369.199219 613.898438 368.300781 613.699219 C 367.300781 613.398438 367.898438 613.199219 369.5 613.199219 C 371.199219 613.199219 371.898438 613.398438 371.300781 613.699219 Z M 582 613.898438 C 582 614.398438 581.199219 615.101562 580.300781 615.398438 C 573.300781 617.398438 559.898438 621 559.199219 621 C 558.601562 621 558 620.398438 557.699219 619.601562 C 557.300781 618.699219 557.699219 618.398438 558.898438 618.699219 C 560.199219 619 561.101562 618.300781 562 616.101562 L 563.199219 613 L 572.601562 613 C 577.800781 613 582 613.398438 582 613.898438 Z M 1065.601562 615.699219 C 1064.601562 619.699219 1061.699219 623.398438 1058.5 624.5 C 1056.101562 625.300781 1055.5 625.101562 1053.398438 622.699219 C 1051.101562 620 1050.199219 615.101562 1051.699219 613.699219 C 1052 613.300781 1055.5 613 1059.300781 613 L 1066.199219 613 Z M 216.898438 620.898438 C 215.699219 623.199219 214.300781 625 213.898438 625 C 213.5 625 212.5 623.898438 211.601562 622.5 C 210 620.101562 210.101562 620.101562 214.300781 618.199219 C 216.601562 617.101562 218.699219 616.398438 218.898438 616.601562 C 219 616.699219 218.199219 618.699219 216.898438 620.898438 Z M 464.5 617 C 464.199219 617.5 463.300781 618 462.699219 618 C 462 618 462.101562 617.601562 463 617 C 464.898438 615.800781 465.300781 615.800781 464.5 617 Z M 834 622 C 830.898438 625.898438 829 626.601562 828.300781 624.300781 C 827.898438 623.199219 834.601562 618 836.300781 618 C 836.800781 618 835.699219 619.800781 834 622 Z M 732.601562 623.5 C 734 624.898438 735 626.601562 734.699219 627.300781 C 733.898438 629.800781 731.300781 628.898438 728.101562 625 L 724.898438 621 L 727.5 621 C 728.898438 621 731.199219 622.101562 732.601562 623.5 Z M 539 627 C 536.800781 628.398438 533.699219 628.300781 534.601562 626.699219 C 536.601562 623.199219 537.300781 622.898438 538.898438 624.5 C 540.300781 625.898438 540.300781 626.199219 539 627 Z M 342 624.898438 C 342 625.601562 334 629 332.300781 629 C 332.101562 629 332.699219 627.898438 333.699219 626.5 C 335 624.800781 336.5 624.101562 338.800781 624 C 340.5 624 342 624.398438 342 624.898438 Z M 513.5 626 C 512.5 627.101562 511.300781 628 510.898438 628 C 509.398438 628 511.101562 625.101562 512.800781 624.699219 C 513.800781 624.398438 514.699219 624.199219 514.898438 624.101562 C 515.101562 624.101562 514.5 624.898438 513.5 626 Z M 576.5 628.101562 C 570 630.101562 566 630.601562 567.601562 629.101562 C 569 627.699219 575 626.199219 579 626.199219 C 582.101562 626.199219 581.898438 626.398438 576.5 628.101562 Z M 576.5 628.101562 "/>
</g>
</svg>
