<?xml version="1.0" encoding="UTF-8"?>
<svg xmlns="http://www.w3.org/2000/svg" xmlns:xlink="http://www.w3.org/1999/xlink" width="1065px" height="500px" viewBox="0 0 1065 500" version="1.1">
<g id="surface1">
<path style=" stroke:none;fill-rule:nonzero;fill:rgb(0%,0%,0%);fill-opacity:1;" d="M 101.007812 7.878906 C 91.683594 11.503906 74.757812 15.546875 68.363281 15.546875 C 65.296875 15.546875 62.5 15.960938 62.097656 16.480469 C 61.03125 17.722656 44.375 18.96875 23.988281 19.070312 C 14.125 19.175781 4.796875 19.589844 3.332031 20.003906 C 0.667969 20.730469 0.667969 21.558594 0.933594 248.445312 L 1.199219 476.265625 L 9.0625 479.375 C 13.324219 481.136719 19.457031 484.140625 22.652344 486.109375 C 27.984375 489.324219 29.582031 489.738281 39.84375 490.464844 C 46.105469 490.773438 54.234375 491.914062 57.699219 492.847656 L 64.097656 494.507812 L 69.960938 490.464844 C 76.492188 486.007812 88.351562 481.757812 107.804688 476.988281 C 118.332031 474.503906 121.132812 474.089844 126.0625 474.917969 C 129.925781 475.539062 132.59375 475.539062 134.457031 474.710938 C 136.058594 474.089844 141.652344 473.570312 147.117188 473.570312 C 156.710938 473.570312 156.976562 473.464844 162.042969 469.421875 C 166.441406 465.898438 167.371094 465.589844 169.238281 466.9375 C 174.566406 470.667969 181.496094 471.808594 194.558594 471.1875 C 201.488281 470.875 209.347656 470.875 211.878906 471.394531 C 218.144531 472.53125 220.542969 472.015625 222.273438 469.007812 L 223.742188 466.523438 L 236.667969 470.5625 C 243.863281 472.84375 250.390625 474.710938 251.457031 474.710938 C 252.523438 474.710938 256.121094 473.570312 259.585938 472.222656 C 269.847656 468.179688 279.574219 466.417969 297.03125 465.277344 C 315.421875 464.035156 319.820312 463.203125 319.820312 460.511719 C 319.953125 455.949219 322.085938 455.636719 327.816406 459.164062 L 333.546875 462.6875 L 351.800781 457.816406 C 369.925781 452.945312 377.921875 451.90625 380.71875 454.082031 C 381.785156 454.914062 383.652344 454.914062 387.25 454.082031 C 390.179688 453.460938 393.910156 452.945312 395.511719 452.945312 C 397.242188 452.945312 400.308594 452.011719 402.308594 450.972656 C 405.90625 448.902344 406.570312 448.902344 431.890625 448.589844 C 434.820312 448.589844 438.285156 449.417969 440.550781 450.765625 L 444.417969 452.839844 L 459.074219 449.835938 C 467.070312 448.070312 473.867188 446.308594 474.132812 445.6875 C 474.933594 443.824219 477.332031 444.652344 483.195312 448.796875 C 486.394531 451.078125 489.855469 452.945312 490.789062 452.945312 C 491.855469 452.945312 495.1875 451.492188 498.386719 449.730469 C 503.847656 446.621094 504.382812 446.515625 509.578125 447.761719 C 512.644531 448.382812 518.640625 450.351562 523.171875 452.113281 L 531.300781 455.328125 L 538.628906 452.113281 L 545.960938 448.796875 L 549.558594 450.972656 C 554.886719 454.292969 561.816406 455.121094 568.214844 453.359375 C 574.742188 451.597656 589 451.492188 598.328125 453.046875 C 605.125 454.1875 605.390625 454.082031 610.722656 450.765625 C 614.1875 448.589844 616.320312 447.761719 616.71875 448.589844 C 620.183594 456.882812 649.367188 466.417969 671.222656 466.417969 C 683.214844 466.417969 705.203125 463.101562 715.597656 459.679688 C 719.726562 458.332031 727.058594 456.675781 731.722656 455.949219 C 739.050781 454.914062 741.449219 455.015625 748.113281 456.46875 C 755.707031 458.230469 755.972656 458.230469 758.773438 456.15625 C 762.371094 453.566406 764.101562 453.460938 774.761719 455.636719 C 787.824219 458.332031 791.953125 457.816406 803.015625 452.632812 C 817.40625 445.792969 819.671875 445.6875 853.519531 451.699219 C 860.183594 452.839844 870.710938 454.082031 877.105469 454.394531 C 883.503906 454.808594 890.164062 455.429688 891.898438 455.949219 C 894.03125 456.570312 897.09375 456.363281 901.890625 455.015625 C 908.554688 453.152344 909.085938 453.152344 915.75 455.015625 C 922.414062 456.777344 934.808594 458.644531 948.796875 459.785156 C 952.53125 460.09375 958.527344 459.578125 964.65625 458.230469 L 974.519531 456.15625 L 980.78125 458.644531 C 984.113281 459.992188 990.507812 461.648438 994.90625 462.375 C 1001.835938 463.515625 1003.300781 463.410156 1007.433594 461.753906 C 1016.628906 458.023438 1019.425781 457.917969 1027.019531 460.820312 C 1030.886719 462.375 1037.148438 465.796875 1041.011719 468.492188 C 1049.542969 474.398438 1052.339844 475.125 1059.402344 473.671875 L 1064.734375 472.53125 L 1064.734375 18.554688 L 1061.800781 19.277344 C 1060.070312 19.691406 1056.871094 21.039062 1054.605469 22.386719 C 1052.339844 23.734375 1049.007812 24.875 1047.277344 24.875 C 1045.542969 24.875 1040.214844 25.808594 1035.683594 26.949219 C 1024.890625 29.539062 1012.496094 29.644531 1005.566406 27.050781 C 999.703125 24.875 997.835938 25.082031 992.375 28.710938 C 989.175781 30.679688 986.910156 31.09375 979.046875 31.199219 C 964.523438 31.300781 957.992188 30.992188 954.394531 29.953125 C 951.863281 29.230469 950.132812 29.539062 946.265625 31.300781 C 940.402344 34.203125 929.34375 37.210938 924.8125 37.3125 C 922.945312 37.3125 920.414062 36.277344 918.816406 34.722656 C 916.683594 32.546875 914.550781 32.027344 907.488281 31.507812 C 902.691406 31.199219 896.027344 30.265625 892.695312 29.4375 C 887.101562 28.089844 886.035156 28.089844 881.636719 29.644531 C 876.707031 31.507812 876.574219 31.507812 867.511719 27.46875 C 865.644531 26.636719 862.582031 25.910156 860.582031 25.910156 C 858.449219 25.910156 856.449219 25.082031 855.652344 23.941406 C 854.585938 22.386719 853.386719 22.179688 850.054688 22.699219 C 847.65625 23.113281 840.328125 23.011719 833.664062 22.59375 C 821.671875 21.765625 821.402344 21.765625 813.542969 24.980469 C 804.878906 28.605469 795.285156 30.472656 786.890625 30.160156 C 764.371094 29.4375 761.4375 29.539062 757.839844 31.40625 C 752.507812 34.101562 740.78125 36.070312 723.992188 37.210938 C 715.730469 37.832031 707.734375 38.765625 706.136719 39.488281 C 704.535156 40.113281 695.476562 41.253906 685.878906 41.976562 C 670.6875 43.117188 668.15625 43.636719 666.558594 45.5 C 664.957031 47.265625 663.226562 47.679688 658.027344 47.679688 C 654.429688 47.679688 650.167969 47.160156 648.703125 46.539062 C 646.835938 45.707031 645.636719 45.707031 644.570312 46.539062 C 642.703125 47.988281 638.839844 47.988281 635.640625 46.433594 C 633.644531 45.398438 632.175781 45.398438 628.578125 46.433594 C 626.179688 47.160156 620.449219 47.679688 615.917969 47.679688 C 609.390625 47.679688 607.125 47.265625 604.992188 45.605469 C 603.527344 44.464844 602.328125 43.015625 602.328125 42.496094 C 602.328125 40.628906 595.398438 41.460938 593.265625 43.53125 C 589.800781 46.847656 572.609375 46.640625 558.886719 43.015625 C 553.15625 41.5625 547.023438 40.320312 545.160156 40.320312 C 535.964844 40.421875 522.371094 41.667969 516.109375 43.117188 C 509.3125 44.671875 503.714844 44.363281 503.714844 42.390625 C 503.714844 40.835938 500.117188 41.355469 493.722656 43.738281 C 488.257812 45.8125 487.058594 45.917969 481.59375 44.777344 C 475.867188 43.53125 475.332031 43.636719 471.46875 46.125 C 466.269531 49.542969 462.539062 49.441406 454.808594 45.605469 C 451.347656 43.84375 447.480469 42.496094 446.28125 42.496094 C 445.082031 42.496094 442.285156 41.769531 440.285156 40.941406 C 435.886719 39.074219 425.492188 39.699219 419.496094 42.082031 C 417.5 42.910156 409.636719 44.257812 401.773438 45.191406 C 390.714844 46.433594 386.714844 46.539062 382.984375 45.605469 C 380.320312 44.878906 375.789062 44.671875 371.921875 45.085938 C 364.726562 45.8125 357.933594 43.84375 341.40625 36.378906 L 332.078125 32.132812 L 317.6875 32.132812 C 305.5625 32.132812 302.761719 31.820312 298.898438 29.953125 C 295.167969 28.089844 294.101562 27.984375 292.234375 29.125 C 291.167969 29.953125 287.972656 30.578125 285.304688 30.679688 C 282.640625 30.785156 275.445312 31.300781 269.183594 31.714844 C 255.324219 32.753906 255.589844 32.753906 239.199219 29.125 C 221.609375 25.1875 204.019531 21.972656 192.691406 20.730469 C 187.628906 20.109375 182.429688 19.175781 181.097656 18.65625 C 179.765625 18.035156 176.300781 17.621094 173.234375 17.621094 C 170.304688 17.621094 165.640625 16.894531 162.839844 15.960938 C 159.511719 14.925781 155.914062 14.613281 151.78125 15.027344 C 146.984375 15.546875 143.917969 15.132812 137.257812 13.058594 C 132.59375 11.609375 126.328125 10.363281 123.265625 10.363281 C 119.800781 10.363281 116.335938 9.640625 114.46875 8.5 C 109.273438 5.390625 107.539062 5.285156 101.007812 7.878906 Z M 101.007812 7.878906 "/>
</g>
</svg>
