<?xml version="1.0" standalone="no"?>
<!DOCTYPE svg PUBLIC "-//W3C//DTD SVG 20010904//EN"
 "http://www.w3.org/TR/2001/REC-SVG-20010904/DTD/svg10.dtd">
<svg version="1.0" xmlns="http://www.w3.org/2000/svg"
 width="920.000000pt" height="916.000000pt" viewBox="0 0 920.000000 916.000000"
 preserveAspectRatio="xMidYMid meet">

<g transform="translate(0.000000,916.000000) scale(0.100000,-0.100000)"
fill="#000000" stroke="none">
<path d="M4569 9118 c-16 -18 -29 -43 -29 -56 0 -34 -52 -82 -88 -82 -21 0
-36 -10 -59 -37 -18 -23 -55 -50 -92 -68 l-63 -29 -59 20 c-63 22 -68 21 -44
-13 16 -23 24 -20 -74 -39 -16 -3 -34 -11 -40 -18 -6 -7 -22 -11 -36 -8 -20 3
-35 -6 -74 -44 l-49 -49 -43 38 c-24 21 -52 43 -62 49 -16 8 -18 7 -12 -11 6
-19 3 -20 -27 -14 -18 3 -39 15 -46 25 -18 25 -78 25 -92 -2 -6 -11 -21 -30
-34 -43 l-24 -24 -17 30 c-24 40 -74 96 -97 108 -17 9 -19 8 -14 -9 6 -19 5
-19 -38 -4 -36 13 -47 14 -60 3 -13 -11 -11 -18 19 -63 48 -69 46 -100 -10
-160 -33 -37 -50 -48 -73 -48 l-30 0 -7 103 c-6 89 -10 105 -31 127 -13 14
-33 36 -43 49 -15 21 -29 26 -85 29 -36 2 -66 8 -66 13 0 5 -6 9 -14 9 -15 0
-26 -59 -27 -144 l0 -51 -24 65 c-27 72 -58 106 -63 71 -3 -20 -5 -20 -32 -6
-36 19 -54 19 -70 0 -9 -11 -9 -21 4 -46 9 -18 14 -34 12 -36 -5 -5 -133 59
-208 103 -47 29 -60 33 -82 25 -37 -15 -58 -60 -46 -102 6 -19 10 -43 10 -54
0 -19 -2 -18 -19 4 -21 28 -51 23 -51 -8 0 -19 -2 -19 -52 4 -55 26 -108 33
-108 15 0 -6 7 -13 15 -16 22 -9 10 -21 -30 -28 -20 -4 -45 -16 -56 -27 -19
-19 -20 -19 -72 7 -28 14 -65 36 -82 48 -47 36 -163 51 -247 33 -38 -7 -68
-11 -68 -9 0 3 8 29 17 58 13 43 14 58 5 79 -7 14 -12 40 -12 58 0 32 -42 107
-60 107 -5 0 -16 12 -23 26 l-14 26 -21 -34 c-12 -20 -22 -44 -22 -54 0 -11
-8 -30 -17 -43 -12 -18 -18 -55 -22 -140 l-6 -115 -60 -4 c-33 -2 -114 -14
-180 -27 -66 -14 -174 -31 -240 -39 -66 -8 -128 -17 -138 -21 -15 -6 -17 -1
-17 49 0 50 -3 59 -38 96 -22 22 -48 40 -59 40 -10 0 -35 16 -54 36 -67 70
-60 69 -93 6 -27 -51 -30 -69 -35 -178 -6 -121 -6 -121 -39 -152 -36 -34 -38
-43 -17 -102 28 -81 23 -86 -48 -47 -64 36 -132 53 -142 36 -4 -5 1 -12 10
-15 13 -5 6 -12 -27 -29 -23 -12 -45 -29 -46 -39 -5 -24 26 -56 54 -56 28 0
58 -35 119 -141 26 -46 68 -115 92 -153 38 -62 56 -113 35 -104 -26 11 -116
124 -138 174 -31 68 -60 104 -84 104 -10 0 -28 8 -41 18 -33 26 -123 36 -140
15 -10 -11 -23 -13 -52 -9 -35 6 -39 5 -32 -11 4 -10 9 -30 10 -45 2 -15 12
-42 23 -60 11 -18 22 -45 26 -60 4 -16 40 -57 92 -105 47 -43 108 -111 135
-150 27 -40 70 -98 95 -128 l45 -56 -33 -15 c-61 -29 -78 -39 -78 -45 0 -14
42 -42 97 -64 l58 -24 -3 -58 c-3 -49 0 -63 19 -87 25 -32 40 -139 21 -158 -5
-5 -56 -12 -113 -15 -96 -6 -105 -8 -128 -33 -15 -15 -36 -33 -48 -39 -16 -8
-23 -21 -23 -41 0 -16 -5 -32 -11 -36 -7 -4 -9 -21 -5 -45 4 -25 2 -39 -5 -39
-6 0 -9 -11 -7 -24 3 -26 -26 -66 -49 -66 -28 0 -10 -16 51 -47 52 -26 80 -33
154 -39 50 -4 89 -10 87 -14 -3 -4 -63 -46 -134 -93 -72 -48 -137 -97 -146
-111 -14 -21 -14 -28 -2 -59 12 -28 24 -38 63 -51 26 -9 72 -16 101 -16 35 0
52 -4 48 -10 -4 -6 -15 -8 -26 -5 -13 4 -19 2 -19 -9 0 -8 -16 -20 -35 -26
-19 -6 -35 -16 -35 -21 0 -5 -16 -19 -35 -31 -20 -11 -56 -46 -81 -76 l-46
-56 26 -19 c20 -14 25 -24 20 -42 -8 -30 3 -62 22 -69 9 -3 33 4 55 17 35 21
45 23 102 15 84 -11 95 -16 103 -41 4 -12 26 -56 50 -97 53 -89 55 -108 16
-102 -20 3 -37 -4 -59 -22 -41 -35 -77 -95 -60 -101 82 -30 96 -32 138 -24 58
11 59 11 59 -1 0 -5 -5 -10 -11 -10 -16 0 -47 -39 -68 -85 -15 -34 -25 -42
-63 -52 -80 -21 -73 -83 13 -122 l37 -17 -67 -12 c-36 -7 -86 -22 -110 -34
-38 -18 -42 -23 -27 -33 15 -11 14 -14 -4 -38 -39 -49 -16 -73 45 -45 21 9 37
9 73 -1 78 -20 162 -62 162 -80 0 -27 -13 -36 -53 -37 -21 -1 -46 -8 -54 -17
-14 -14 -12 -17 21 -31 45 -19 52 -35 36 -92 -11 -40 -11 -47 6 -65 13 -15 26
-19 46 -15 l28 6 0 -74 c0 -86 9 -79 -132 -91 -72 -6 -78 -5 -119 22 -36 24
-50 27 -103 25 -63 -3 -141 -38 -153 -68 -3 -8 -12 -13 -19 -10 -30 12 -23
-16 13 -50 44 -42 97 -71 172 -94 46 -15 51 -19 33 -24 -26 -9 -29 -23 -6 -28
14 -3 13 -8 -8 -33 -20 -23 -24 -35 -17 -53 7 -18 14 -22 30 -17 50 16 91 7
169 -39 43 -25 90 -48 104 -52 35 -8 48 -27 44 -66 -3 -28 -8 -33 -41 -41 -34
-8 -47 -5 -112 27 -40 20 -93 52 -116 72 -54 45 -72 54 -106 55 -15 1 -50 2
-78 2 -35 1 -63 -5 -93 -21 -23 -12 -51 -22 -62 -22 -27 0 -25 -6 14 -43 71
-68 119 -99 186 -122 93 -32 95 -33 65 -57 -30 -23 -32 -52 -5 -95 21 -35 45
-51 105 -68 l39 -12 -54 -13 c-109 -26 -230 -85 -230 -112 0 -6 9 -8 20 -5 25
6 25 9 -6 -52 -15 -27 -24 -57 -21 -66 8 -20 56 -19 85 1 19 13 34 14 95 6 40
-5 105 -20 145 -32 70 -21 72 -23 59 -43 -8 -12 -34 -26 -62 -33 -55 -14 -114
-58 -134 -100 -29 -59 -31 -64 -31 -69 0 -3 29 -5 65 -5 36 0 65 -3 65 -6 0
-3 -7 -12 -15 -20 -22 -22 -19 -42 11 -69 21 -19 24 -27 15 -44 -15 -28 -14
-41 4 -35 24 10 17 -10 -15 -41 -32 -31 -39 -51 -15 -41 12 4 15 -3 15 -33 0
-37 22 -72 34 -53 3 5 24 6 48 2 23 -5 64 -5 90 -1 45 8 48 7 48 -15 0 -12 3
-30 6 -38 5 -14 0 -16 -35 -10 -26 4 -41 3 -41 -4 0 -6 -12 -13 -28 -17 -33
-7 -76 -41 -68 -53 3 -5 30 -20 61 -32 55 -22 74 -50 35 -50 -12 0 -32 -12
-46 -27 -27 -30 -27 -56 2 -156 16 -58 15 -58 -80 7 -63 43 -141 74 -154 61
-3 -3 0 -11 6 -17 19 -19 14 -25 -32 -37 -79 -20 -88 -62 -18 -96 49 -23 52
-36 16 -72 -22 -22 -24 -27 -11 -35 12 -6 14 -18 10 -46 -3 -20 -10 -41 -14
-46 -15 -17 -10 -26 16 -26 26 0 36 -12 91 -105 40 -68 134 -300 134 -332 0
-11 -10 -27 -22 -35 -27 -18 -18 -34 26 -42 41 -8 61 -29 81 -85 l15 -42 -28
2 c-16 2 -35 -2 -43 -8 -98 -82 -104 -92 -58 -104 l24 -6 -30 -12 c-16 -7 -43
-24 -58 -39 -35 -32 -77 -112 -77 -145 0 -13 -6 -29 -12 -36 -11 -11 -6 -12
27 -7 102 16 135 24 159 39 35 23 46 21 46 -8 0 -28 -50 -61 -87 -56 -20 2
-23 -2 -23 -34 0 -37 -12 -56 -72 -112 -30 -28 -54 -109 -44 -148 4 -14 2 -25
-4 -25 -5 0 -10 -7 -10 -16 0 -14 8 -15 48 -9 26 3 64 11 85 17 20 6 39 9 41
7 2 -2 -5 -51 -15 -109 -10 -58 -18 -128 -19 -156 0 -28 -5 -76 -11 -108 -10
-55 -9 -58 16 -83 14 -14 23 -29 19 -32 -3 -3 -12 2 -19 12 -8 12 -15 14 -20
7 -8 -12 36 -95 50 -94 23 2 83 152 105 263 l23 115 33 -85 c36 -92 40 -120
22 -169 -9 -28 -8 -35 5 -45 9 -6 18 -22 22 -36 3 -13 18 -37 32 -54 l26 -29
18 22 c20 26 49 117 57 180 5 46 17 54 28 20 16 -52 64 -99 64 -64 0 12 6 12
40 -1 55 -22 71 -8 47 42 -28 58 -24 65 37 65 51 0 55 -2 71 -32 11 -24 14
-47 9 -88 -5 -50 -3 -60 20 -94 14 -22 26 -45 26 -53 0 -7 17 -31 39 -52 21
-20 40 -43 42 -50 6 -17 77 -40 126 -41 23 0 45 -4 48 -10 3 -5 13 -10 22 -10
11 0 14 6 9 24 -9 35 5 40 31 9 22 -27 22 -27 23 -5 0 26 0 26 36 7 76 -39
124 8 74 72 -22 28 -20 47 11 156 11 37 23 67 28 67 5 0 25 -20 46 -45 47 -58
90 -82 113 -63 9 7 20 17 23 21 4 5 16 -11 28 -36 30 -62 53 -80 89 -72 28 6
62 52 62 84 0 6 6 11 13 11 7 0 28 -31 46 -69 18 -38 45 -84 61 -102 28 -33
29 -34 43 -14 15 19 16 19 22 -10 12 -54 25 -77 42 -73 19 3 39 37 48 81 4 21
23 39 78 74 40 25 84 57 98 70 24 22 27 23 62 8 20 -8 51 -15 70 -15 18 0 38
-5 45 -12 18 -18 22 -6 11 41 -5 24 -7 46 -5 49 6 6 210 -30 307 -55 85 -21
114 -13 135 35 8 20 18 52 21 70 7 38 16 46 43 37 18 -6 19 -9 6 -33 -7 -15
-16 -53 -18 -85 -4 -54 -4 -57 16 -51 34 10 94 52 159 111 60 56 61 56 70 32
39 -103 78 -149 140 -164 27 -7 27 -9 21 -59 l-7 -51 22 19 c21 19 21 19 21
-10 0 -30 33 -94 48 -94 18 0 52 42 52 65 0 28 49 69 133 111 51 26 70 23 82
-15 3 -10 24 -26 46 -37 45 -20 72 -52 67 -81 -2 -15 3 -18 31 -15 19 1 50 11
70 21 20 10 48 23 63 29 15 6 49 38 74 71 26 34 57 67 70 76 13 8 69 52 124
96 l101 81 79 -23 79 -22 24 -56 c14 -31 42 -106 61 -167 40 -122 58 -142 115
-129 46 10 102 91 116 168 4 20 10 37 14 37 3 0 19 -46 35 -101 23 -78 39
-114 70 -153 l41 -51 3 32 3 31 56 -24 c52 -23 57 -24 80 -9 22 15 24 21 18
53 -4 21 -15 45 -26 55 -22 20 -23 34 -9 108 20 107 52 211 62 201 6 -6 6 -24
-1 -48 -15 -54 -14 -89 4 -104 8 -7 15 -21 15 -30 0 -25 45 -58 97 -71 24 -6
43 -15 43 -20 0 -18 85 4 112 28 14 14 39 53 54 86 l28 62 8 -68 c12 -104 62
-237 89 -237 5 0 9 11 9 25 l0 25 47 -30 c51 -33 67 -36 86 -18 15 14 10 64
-10 95 -17 26 -9 60 43 190 20 48 43 115 50 147 23 95 42 128 73 124 16 -2 25
-8 23 -17 -1 -7 2 -45 7 -84 7 -53 6 -98 -6 -185 -14 -105 -14 -117 1 -149 9
-18 16 -45 16 -58 0 -28 60 -101 91 -110 10 -4 19 -13 19 -20 0 -8 5 -17 10
-20 18 -11 36 53 58 200 5 35 19 65 44 98 28 37 39 63 48 116 6 38 17 77 24
87 12 16 16 15 54 -15 22 -18 43 -44 46 -57 12 -44 36 -25 66 53 l19 48 1 -43
0 -43 58 7 c31 3 63 11 70 17 8 6 26 11 40 12 22 0 27 4 25 22 -2 16 6 27 27
38 33 17 31 20 64 -70 15 -37 31 -74 36 -80 16 -20 61 -5 79 26 9 16 18 29 21
29 3 0 15 -28 26 -63 56 -163 72 -199 99 -224 16 -16 23 -29 17 -31 -7 -2 -12
-9 -12 -17 0 -15 107 -13 137 3 10 5 38 13 62 17 41 7 44 5 73 -29 34 -42 51
-46 42 -11 -8 31 -7 31 60 1 49 -22 56 -23 75 -9 26 18 27 53 1 86 -12 15 -20
40 -20 65 l0 40 87 41 c48 23 120 62 161 87 40 24 79 44 87 44 7 0 35 -9 62
-21 45 -19 258 -74 385 -99 52 -10 60 -16 91 -59 19 -26 49 -53 66 -60 17 -8
31 -20 31 -27 0 -28 26 -12 54 34 68 108 76 131 76 214 0 43 2 78 4 78 2 0 23
-7 47 -16 32 -11 60 -13 104 -8 l59 6 -23 19 -23 19 23 20 c13 10 29 19 35 20
18 0 44 35 44 58 0 29 -44 56 -86 54 -27 -2 -42 5 -79 39 -25 23 -43 44 -40
48 2 4 11 59 19 122 8 63 27 159 41 214 17 65 24 113 21 137 -4 20 -2 40 4 43
14 8 13 51 -2 78 -6 12 -27 41 -46 65 -19 23 -30 42 -26 42 5 0 52 -11 104
-25 113 -29 251 -35 230 -10 -7 8 -20 15 -29 15 -13 1 -13 3 4 16 11 8 31 18
45 21 55 13 79 62 41 83 -11 5 -40 10 -64 10 -53 0 -102 32 -168 110 -24 28
-73 74 -108 102 -69 55 -69 60 6 72 71 10 169 66 118 66 -21 0 -19 6 11 46 33
43 26 69 -16 60 -17 -3 -44 -9 -60 -12 -45 -9 -147 31 -163 65 -10 21 -21 27
-57 31 -44 5 -44 5 -23 21 36 25 107 119 90 119 -18 0 -17 82 1 117 7 12 12
25 12 29 0 4 -33 4 -74 1 -69 -6 -75 -5 -81 13 -4 14 2 30 18 49 13 16 43 63
65 104 23 41 71 118 107 171 36 53 65 105 65 116 0 53 -72 75 -152 46 -21 -8
-38 -12 -38 -10 0 3 86 126 107 154 2 2 34 -7 71 -19 43 -15 79 -22 97 -18 17
3 50 10 75 15 51 9 101 42 121 78 7 13 21 24 31 24 34 0 18 25 -31 48 -27 12
-55 22 -63 22 -7 0 -24 7 -37 16 -16 12 -62 19 -159 25 -75 5 -157 13 -182 17
l-45 8 56 17 c63 19 119 56 85 57 -13 0 -16 5 -11 17 25 60 14 75 -42 60 -36
-9 -54 -7 -130 14 -99 27 -117 50 -48 59 l39 5 3 63 c2 55 7 67 32 93 16 16
33 39 36 50 6 19 12 20 58 15 67 -8 147 26 172 73 8 17 20 31 26 31 24 0 -4
18 -38 25 -47 9 -59 15 -43 25 20 12 3 29 -38 36 -27 5 -52 23 -97 69 -33 33
-82 80 -109 102 -48 40 -49 41 -37 74 6 19 33 72 59 117 l47 84 70 -6 c126
-11 167 22 129 105 -9 22 -32 53 -51 69 -51 46 -44 52 51 44 116 -9 233 20
166 41 -19 6 -18 10 19 43 52 49 61 94 24 128 -14 13 -38 24 -53 24 -34 0
-101 69 -153 158 -20 34 -59 90 -87 123 -27 33 -50 64 -50 69 0 5 20 33 45 62
25 29 52 68 61 87 15 32 14 36 -4 60 -17 22 -27 26 -70 26 -45 -1 -49 1 -38
17 8 14 8 21 -3 27 -11 7 -8 17 17 52 37 51 66 119 53 119 -6 0 -13 -6 -18
-12 -4 -8 -12 8 -18 42 -10 53 -12 55 -41 54 -28 -1 -30 0 -26 29 3 17 22 53
43 80 22 27 40 53 40 58 1 5 2 14 3 21 0 7 11 17 23 24 38 18 62 45 68 75 4
16 14 33 22 38 48 27 -119 52 -206 31 -29 -7 -53 -11 -55 -9 -2 2 -6 19 -9 36
-8 43 8 51 115 59 81 6 85 8 97 35 7 16 20 29 29 29 12 0 13 -3 4 -12 -16 -16
-15 -28 1 -28 20 0 81 67 68 74 -6 4 -39 12 -73 17 -39 6 -71 18 -85 31 -13
12 -41 22 -67 25 -25 3 -46 9 -46 13 0 3 23 17 52 31 64 29 173 136 158 154
-11 13 -73 23 -215 34 -49 3 -101 12 -114 20 l-24 13 24 19 c13 10 46 30 73
45 43 24 52 25 86 15 60 -18 77 -14 99 23 12 18 21 42 21 52 0 12 11 24 30 31
16 6 37 24 47 40 14 24 22 28 38 22 31 -12 125 -11 125 2 0 6 -9 13 -20 16
-11 3 -20 8 -20 12 0 9 51 31 70 31 25 0 52 35 48 62 -2 18 -15 27 -67 45 -35
12 -71 29 -80 37 -13 14 -12 18 10 42 l24 27 -27 -5 c-34 -6 -34 -4 -3 51 44
76 25 99 -48 57 -24 -14 -49 -26 -55 -26 -6 0 -49 48 -95 108 -47 59 -99 121
-117 137 -18 17 -50 54 -72 84 -22 29 -49 62 -60 73 -11 11 -18 21 -16 23 1 2
57 9 123 16 134 13 159 25 153 71 -4 26 -2 28 31 28 20 0 51 9 69 20 18 11 40
20 48 20 21 0 84 69 84 92 0 13 8 18 28 18 29 1 62 20 62 37 0 16 -46 43 -72
43 -42 0 -84 37 -140 125 -17 28 -52 73 -77 101 -25 28 -71 79 -101 114 l-55
64 -1 79 c-1 43 -4 81 -8 84 -3 4 -6 50 -6 104 0 105 -10 130 -58 144 -20 6
-33 -2 -77 -48 l-53 -54 -4 106 c-4 115 -21 168 -43 138 -11 -15 -15 -14 -40
13 -38 40 -71 40 -80 0 -4 -19 -2 -36 5 -46 14 -16 -6 -82 -45 -144 -38 -61
-36 -61 -200 -18 -82 22 -171 42 -196 45 -44 4 -46 3 -59 -26 -14 -36 -17 -36
-119 10 -35 16 -78 29 -95 29 -48 0 -65 19 -75 78 -9 57 -18 73 -30 54 -6 -10
-15 -5 -34 17 -44 53 -73 35 -61 -40 5 -32 3 -40 -12 -45 -41 -15 -64 -46 -64
-88 -1 -26 -8 -50 -21 -65 -19 -24 -21 -24 -55 -8 -19 9 -59 20 -88 23 -64 8
-69 10 -87 48 -15 32 -29 42 -72 51 -16 3 -32 16 -39 30 -12 27 -101 74 -153
81 -76 11 -80 10 -78 -14 3 -20 0 -21 -18 -12 -16 9 -24 8 -38 -4 -10 -9 -32
-16 -51 -16 -18 0 -74 -16 -124 -36 -102 -41 -259 -94 -264 -89 -2 2 6 17 19
34 18 25 21 37 14 73 -4 24 -8 57 -9 73 -4 40 -20 41 -114 14 -65 -19 -86 -32
-133 -76 l-55 -53 -87 10 c-76 9 -96 8 -159 -10 -86 -24 -78 -23 -78 -9 0 13
-52 98 -61 99 -9 0 -65 -82 -73 -107 -8 -24 -10 -25 -151 -42 -44 -6 -158 -24
-254 -41 -96 -16 -181 -30 -188 -30 -10 0 -12 11 -10 38 6 49 1 58 -39 82 -27
17 -42 20 -78 15 -37 -6 -52 -3 -81 15 -42 26 -43 34 -11 81 14 20 27 53 31
75 3 21 9 51 11 67 7 33 -11 36 -35 6 -16 -21 -17 -20 -34 35 -16 49 -45 86
-70 86 -4 0 -21 -15 -38 -32z m-169 -377 c0 -5 3 -18 7 -28 6 -17 5 -17 -15 1
-12 10 -19 23 -16 27 7 12 24 11 24 0z m2369 -97 c-16 -41 -23 -12 -8 33 10
29 14 33 17 17 1 -11 -2 -34 -9 -50z m-4305 11 c3 -8 1 -15 -4 -15 -6 0 -10 7
-10 15 0 8 2 15 4 15 2 0 6 -7 10 -15z m4158 -82 l-18 -48 -53 -3 c-50 -3 -53
-2 -40 14 15 19 110 84 121 84 4 0 0 -21 -10 -47z m-3150 -5 c-9 -9 -12 -7
-12 12 0 19 3 21 12 12 9 -9 9 -15 0 -24z m2943 -2 c-11 -8 -26 -11 -33 -8
-10 3 -5 9 14 17 35 15 45 10 19 -9z m503 -16 c14 -37 -4 -52 -18 -15 -12 33
-13 58 -1 51 5 -3 14 -19 19 -36z m-1288 11 c0 -5 -7 -12 -16 -15 -24 -9 -28
-7 -14 9 14 17 30 20 30 6z m710 -32 c0 -5 -19 -9 -42 -8 l-43 1 35 12 c36 14
50 12 50 -5z m2190 -209 l-8 -35 -1 45 c-1 27 3 40 8 35 6 -6 6 -25 1 -45z
m-3 -87 c-3 -10 -5 -4 -5 12 0 17 2 24 5 18 2 -7 2 -21 0 -30z m223 -150 c43
-61 41 -74 -8 -49 -27 14 -42 46 -42 92 0 23 7 17 50 -43z m-169 -853 c24 -16
55 -30 69 -30 34 0 14 -17 -31 -25 -33 -6 -38 -4 -68 33 -49 62 -39 69 30 22z
m-7991 -390 c0 -32 -6 -34 -65 -21 l-30 7 40 20 c54 29 55 28 55 -6z m7980
-464 c0 -3 -4 -8 -10 -11 -5 -3 -10 -1 -10 4 0 6 5 11 10 11 6 0 10 -2 10 -4z
m-7990 -146 c6 -11 7 -20 2 -20 -10 0 -32 21 -32 32 0 16 19 8 30 -12z m30
-296 c0 -8 -4 -12 -10 -9 -5 3 -10 13 -10 21 0 8 5 12 10 9 6 -3 10 -13 10
-21z m8062 -291 c-4 -32 -13 -44 -19 -26 -3 7 -22 23 -44 35 l-40 22 23 18
c22 16 24 16 53 -2 23 -15 29 -26 27 -47z m-47 -53 c-3 -5 -11 -10 -16 -10 -6
0 -7 5 -4 10 3 6 11 10 16 10 6 0 7 -4 4 -10z m-85 -31 c0 -5 -4 -9 -10 -9 -5
0 -10 7 -10 16 0 8 5 12 10 9 6 -3 10 -10 10 -16z m-7933 -345 c-3 -3 -20 1
-38 9 l-34 14 35 10 c31 8 35 7 38 -10 2 -10 2 -21 -1 -23z m8107 -251 c25
-37 44 -69 41 -71 -5 -5 -77 37 -114 66 -24 19 -24 19 -5 45 10 15 22 27 26
27 4 0 28 -30 52 -67z m-8109 -575 c24 -11 35 -38 15 -38 -16 0 -80 33 -80 42
0 12 35 10 65 -4z m8031 -455 c-2 -2 -19 0 -37 5 -29 7 -34 13 -37 43 l-3 34
40 -39 c22 -22 39 -41 37 -43z m-8031 -198 c20 -8 31 -20 32 -34 1 -11 0 -21
-3 -21 -8 0 -159 42 -163 46 -2 1 12 10 30 18 35 14 51 13 104 -9z m7985 -384
c0 -7 -51 -31 -66 -31 -10 0 -2 29 9 33 21 9 57 7 57 -2z m-7950 -201 c0 -5
-5 -10 -11 -10 -5 0 -7 5 -4 10 3 6 8 10 11 10 2 0 4 -4 4 -10z m7910 -209 c0
-5 -7 -14 -15 -21 -13 -10 -15 -9 -15 9 0 12 6 21 15 21 8 0 15 -4 15 -9z
m-7900 -186 c0 -8 -4 -15 -9 -15 -5 0 -14 7 -21 15 -10 13 -9 15 9 15 12 0 21
-6 21 -15z m7900 -104 c0 -5 -7 -11 -15 -15 -15 -5 -20 5 -8 17 9 10 23 9 23
-2z m-7960 -321 c51 -28 93 -209 55 -240 -9 -7 -17 -11 -19 -9 -15 15 -75 173
-80 212 -8 51 3 59 44 37z m8094 -356 c24 -9 19 -24 -8 -24 -26 0 -40 12 -29
24 8 8 17 8 37 0z m126 -362 c-15 -5 -80 7 -80 15 0 4 8 15 17 25 16 18 17 18
45 -9 16 -15 24 -29 18 -31z m-260 -814 c0 -6 -7 -5 -15 2 -8 7 -15 17 -15 22
0 6 7 5 15 -2 8 -7 15 -17 15 -22z m-7 -48 c-3 -11 -9 -20 -14 -20 -5 0 -9 9
-9 20 0 11 6 20 14 20 9 0 12 -7 9 -20z m-5910 -107 c-7 -2 -21 -2 -30 0 -10
3 -4 5 12 5 17 0 24 -2 18 -5z m1485 -5 c-3 -7 -40 -33 -82 -57 -62 -34 -80
-41 -87 -30 -13 20 -11 29 5 23 10 -4 16 5 21 28 11 48 10 48 81 48 48 0 65
-3 62 -12z m3426 -15 c-22 -97 -42 -143 -64 -143 -17 0 -40 71 -40 121 l0 49
55 0 c55 0 55 0 49 -27z m-6000 -40 c-20 -93 -35 -110 -48 -57 -6 21 -1 33 20
55 34 36 36 36 28 2z m1751 17 c-3 -5 -11 -10 -16 -10 -6 0 -7 5 -4 10 3 6 11
10 16 10 6 0 7 -4 4 -10z m2602 -84 c-17 -42 -26 -53 -31 -41 -3 9 -6 22 -6
29 0 15 54 87 58 77 1 -4 -8 -33 -21 -65z m-722 8 c20 -30 25 -85 10 -91 -6
-2 -20 20 -30 49 -11 29 -21 56 -23 60 -9 21 28 5 43 -18z m-1370 -70 c-31
-23 -36 -16 -18 22 17 34 18 35 27 14 8 -18 6 -25 -9 -36z m-1388 31 c1 -5
-14 -21 -34 -34 -32 -20 -35 -21 -28 -5 4 11 10 27 12 37 6 19 44 20 50 2z
m1218 -15 c-17 -33 -25 -38 -25 -16 0 14 26 46 36 46 2 0 -2 -13 -11 -30z
m475 -11 c-42 -28 -89 -48 -95 -39 -8 13 54 50 85 50 20 0 22 -2 10 -11z"/>
</g>
</svg>
